<svg width="44" height="44" viewBox="0 0 44 44" fill="none" xmlns="http://www.w3.org/2000/svg">
<g clip-path="url(#clip0_843_2876)">
<path d="M43.5113 21.7422C43.5113 9.92632 33.9326 0.347656 22.1167 0.347656C10.3008 0.347656 0.722168 9.92632 0.722168 21.7422C0.722168 32.4207 8.5458 41.2718 18.7738 42.8768V27.9266H13.3416V21.7422H18.7738V17.0287C18.7738 11.6667 21.968 8.7049 26.8549 8.7049C29.1949 8.7049 31.644 9.12276 31.644 9.12276V14.3878H28.9463C26.2887 14.3878 25.4596 16.0371 25.4596 17.7307V21.7422H31.3933L30.4447 27.9266H25.4596V42.8768C35.6876 41.2718 43.5113 32.4207 43.5113 21.7422Z" fill="#1877F2"/>
<path d="M30.4449 27.9266L31.3935 21.7422H25.4598V17.7307C25.4598 16.0388 26.2888 14.3878 28.9465 14.3878H31.6442V9.12276C31.6442 9.12276 29.1959 8.7049 26.855 8.7049C21.9681 8.7049 18.774 11.6667 18.774 17.0287V21.7422H13.3418V27.9266H18.774V42.8768C20.9891 43.2234 23.2447 43.2234 25.4598 42.8768V27.9266H30.4449Z" fill="white"/>
</g>
<defs>
<clipPath id="clip0_843_2876">
<rect width="42.7891" height="42.7891" fill="white" transform="translate(0.722168 0.347656)"/>
</clipPath>
</defs>
</svg>
