<svg width="76" height="76" viewBox="0 0 76 76" fill="none" xmlns="http://www.w3.org/2000/svg">
<circle cx="37.9765" cy="38.2901" r="26.3691" transform="rotate(-45 37.9765 38.2901)" fill="url(#paint0_linear_807_2845)"/>
<g clip-path="url(#clip0_807_2845)">
<path d="M63.2221 34.7814C60.2345 33.3904 57.0809 33.0631 53.9273 32.7358C49.5289 32.163 45.0475 31.9994 40.6491 31.9994C36.4997 31.9176 32.2672 31.9994 28.1178 32.2449C24.9642 32.4085 21.7276 32.7358 18.574 33.2268C16.9142 33.5541 15.3375 33.8814 13.7607 34.6178C13.6777 34.6996 13.5947 34.7814 13.4287 34.6178C13.5117 34.3723 13.7607 34.2087 13.9266 34.045C17.5782 30.6902 21.3127 27.3354 24.9642 23.8987C28.1178 21.0348 31.1884 18.1709 34.3419 15.3071C35.4208 14.3252 36.4997 13.3433 37.5785 12.3613C38.2424 11.7886 38.3254 11.7886 38.9893 12.4432C40.8981 14.2433 42.8068 15.9617 44.7156 17.7618C50.6908 23.2441 56.583 28.6446 62.5582 34.1268C62.8072 34.2905 63.0561 34.536 63.2221 34.7814Z" fill="white"/>
<path d="M32.35 50.0009C32.35 49.2645 32.433 48.6099 32.433 47.9553C32.35 46.5643 33.1799 45.6642 34.3418 45.1732C35.2546 44.8459 36.1675 44.6823 37.0804 44.6005C37.3294 44.6005 37.5783 44.6005 37.5783 45.0096C37.5783 45.3369 37.4953 45.5005 37.0804 45.5005C36.3335 45.5005 35.6696 45.5824 34.9227 45.8278C33.5119 46.3188 33.1799 46.9734 33.1799 48.0371C33.1799 48.7735 33.0969 49.5918 33.0969 50.3282C33.0969 50.8192 33.2629 51.0646 33.7608 50.9828C36.6654 50.9828 39.5701 50.9828 42.4747 50.9828C42.9726 50.9828 43.2216 50.8192 43.2216 50.2464C43.1386 49.2645 43.1386 48.3644 43.1386 47.3825C43.0556 46.4006 42.3087 45.9915 41.3958 45.746C40.7319 45.5005 39.985 45.4187 39.3211 45.4187C38.9891 45.4187 38.7402 45.2551 38.8232 44.9278C38.8232 44.5186 39.1551 44.5186 39.4041 44.6005C40.4829 44.7641 41.6448 44.8459 42.6407 45.4187C43.5535 45.9097 44.0515 46.6461 44.0515 47.7098C44.0515 48.4462 44.0515 49.1827 44.0515 49.9191C44.3834 49.9191 44.5494 49.6736 44.6324 49.51C47.0391 46.7279 48.6989 43.6186 49.6947 40.1819C50.3586 38.0544 50.7736 35.927 50.6906 33.7177C50.6906 33.3086 50.8566 33.2268 51.2715 33.2268C54.0102 33.3904 56.8318 33.6359 59.5704 34.2905C60.7323 34.536 61.8111 34.8633 62.807 35.5179C63.2219 35.7633 63.8029 36.0088 63.8029 36.5816C63.8029 37.2362 63.3049 37.5635 62.807 37.809C61.5622 38.4636 60.1513 38.7909 58.7405 39.0363C56.2509 39.5273 53.7612 39.7728 51.1885 39.9364C50.7736 39.9364 50.5246 40.1001 50.4416 40.5092C49.4458 43.6186 48.0349 46.5643 45.9602 49.1008C45.6283 49.51 45.3793 49.9191 44.9644 50.2464C43.8025 51.2283 43.1386 52.6193 42.5577 54.0103C41.2298 57.1197 39.902 60.2291 38.4912 63.3384C38.4082 63.5021 38.4082 63.9112 38.0763 63.8294C37.8273 63.8294 37.7443 63.5021 37.6613 63.2566C36.0015 59.4108 34.2588 55.6469 32.599 51.8011C32.433 51.3919 32.267 51.0646 31.9351 50.8192C29.2794 48.2008 27.5366 45.0914 26.2918 41.6548C26.1258 41.2456 25.9599 40.7547 25.8769 40.3455C25.7939 40.0182 25.6279 39.8546 25.213 39.8546C22.3083 39.6909 19.4037 39.3636 16.5821 38.7909C15.7522 38.6272 14.9223 38.3817 14.1754 38.0544C13.8435 37.8908 13.5115 37.7271 13.1795 37.4817C12.3497 36.9089 12.3497 36.2543 13.1795 35.6815C14.0924 35.0269 15.1713 34.6178 16.2501 34.3723C18.7398 33.7177 21.2295 33.4722 23.8021 33.2268C24.3001 33.2268 24.715 33.1449 25.213 33.1449C25.5449 33.1449 25.7109 33.2268 25.7109 33.5541C25.6279 37.318 26.7068 40.7547 28.2836 44.1095C29.1964 46.0733 30.3583 47.7916 31.7691 49.4281C31.8521 49.51 31.9351 49.5918 32.0181 49.6736C32.184 49.9191 32.267 49.9191 32.35 50.0009Z" fill="white"/>
<path d="M32.8482 35.0269C33.761 35.0269 34.5909 35.2724 35.4208 35.5997C35.6698 35.6815 35.9188 35.7633 35.7528 36.1725C35.5868 36.4998 35.4208 36.4998 35.0889 36.4179C34.425 36.1725 33.844 35.927 33.0971 35.927C32.3502 35.927 31.6033 35.927 31.0224 36.4179C30.7734 36.5816 30.5245 36.5816 30.3585 36.3361C30.1095 36.0088 30.3585 35.927 30.6075 35.7633C31.2714 35.1906 32.0183 34.9451 32.8482 35.0269Z" fill="white"/>
<path d="M46.292 36.0088C46.292 36.2543 45.8771 36.4998 45.7111 36.4179C44.3003 35.5179 42.8895 35.7633 41.3957 36.3361C41.1467 36.4179 40.9807 36.4179 40.8148 36.1725C40.7318 35.927 40.7318 35.7633 40.9807 35.6815C42.5575 34.9451 44.2173 34.6178 45.7941 35.5997C46.1261 35.7633 46.292 35.927 46.292 36.0088Z" fill="white"/>
</g>
<defs>
<linearGradient id="paint0_linear_807_2845" x1="37.9765" y1="11.9211" x2="37.9765" y2="64.6592" gradientUnits="userSpaceOnUse">
<stop stop-color="#AFEB29"/>
<stop offset="1" stop-color="#38CAB7"/>
</linearGradient>
<clipPath id="clip0_807_2845">
<rect width="60.9969" height="53.6773" fill="white" transform="translate(8.11719 11.5431)"/>
</clipPath>
</defs>
</svg>
